<?xml version="1.0" encoding="UTF-8"?>
<!DOCTYPE svg PUBLIC "-//W3C//DTD SVG 1.1//EN" "http://www.w3.org/Graphics/SVG/1.1/DTD/svg11.dtd">
<!-- Creator: CorelDRAW X8 -->
<svg xmlns="http://www.w3.org/2000/svg" xml:space="preserve" width="84.6666mm" height="84.6666mm" version="1.1" style="shape-rendering:geometricPrecision; text-rendering:geometricPrecision; image-rendering:optimizeQuality; fill-rule:evenodd; clip-rule:evenodd"
viewBox="0 0 8467 8467"
 xmlns:xlink="http://www.w3.org/1999/xlink">
 <defs>
  <style type="text/css">
   <![CDATA[
    .str1 {stroke:#001A25;stroke-width:8.47}
    .str0 {stroke:#FFBD4A;stroke-width:25.4}
    .fil1 {fill:#001A25}
    .fil2 {fill:#FFBD4A}
    .fil0 {fill:#001A25;fill-rule:nonzero}
   ]]>
  </style>
 </defs>
 <g id="Layer_x0020_1">
  <metadata id="CorelCorpID_0Corel-Layer"/>
  <g id="_2031485881488">
   <path class="fil0" d="M2441 5618c71,0 107,-36 107,-78 0,-89 -137,-61 -137,-98 0,-12 10,-22 39,-22 21,0 43,6 67,19l21 -51c-24,-14 -57,-21 -88,-21 -72,0 -107,35 -107,78 0,90 137,62 137,100 0,12 -11,20 -39,20 -28,0 -58,-10 -80,-24l-22 50c23,16 62,27 102,27zm288 -246l0 90 -94 0 0 -90 -68 0 0 241 68 0 0 -94 94 0 0 94 68 0 0 -241 -68 0zm172 188l0 -44 107 0 0 -51 -107 0 0 -41 122 0 0 -52 -190 0 0 241 194 0 0 -53 -126 0zm152 53l184 0 0 -54 -115 0 0 -187 -69 0 0 241zm228 0l68 0 0 -187 74 0 0 -54 -216 0 0 54 74 0 0 187zm223 -53l0 -44 108 0 0 -51 -108 0 0 -41 122 0 0 -52 -189 0 0 241 194 0 0 -53 -127 0zm302 53l73 0 -52 -76c30,-14 48,-40 48,-76 0,-55 -42,-89 -108,-89l-110 0 0 241 68 0 0 -64 37 0 44 64zm0 -152c0,22 -15,35 -43,35l-38 0 0 -71 38 0c28,0 43,14 43,36zm369 152l79 0 -104 -134 99 -107 -75 0 -94 100 0 -100 -67 0 0 241 67 0 0 -60 26 -27 69 87zm199 5c77,0 134,-53 134,-126 0,-72 -57,-125 -134,-125 -78,0 -135,53 -135,125 0,73 57,126 135,126zm0 -57c-37,0 -66,-27 -66,-69 0,-41 29,-69 66,-69 36,0 65,28 65,69 0,42 -29,69 -65,69zm268 -189l-110 0 0 241 68 0 0 -63 42 0c66,0 108,-34 108,-89 0,-55 -42,-89 -108,-89zm-4 124l-38 0 0 -71 38 0c28,0 43,14 43,36 0,22 -15,35 -43,35zm133 117l68 0 0 -241 -68 0 0 241zm407 -189l0 -52 -190 0 0 241 69 0 0 -83 106 0 0 -52 -106 0 0 -54 121 0zm88 136l0 -44 107 0 0 -51 -107 0 0 -41 122 0 0 -52 -190 0 0 241 194 0 0 -53 -126 0zm152 53l184 0 0 -54 -116 0 0 -187 -68 0 0 241zm199 0l68 0 0 -241 -68 0 0 241zm336 0l-90 -125 84 -116 -74 0 -47 69 -49 -69 -77 0 85 119 -88 122 78 0 49 -75 50 75 79 0z"/>
   <g>
    <path class="fil1" d="M2904 5106c31,-75 105,-169 148,-238l930 -1438c45,-70 113,-191 160,-240 34,33 52,71 79,111 280,410 570,899 851,1317 60,89 100,154 156,241 56,87 110,159 155,246 -830,1 -1645,-2 -2479,1zm1331 -2062c33,-64 81,-129 117,-186 27,-43 104,-126 75,-185 -51,-101 -132,-1 -169,54l-103 159c-1,1 -5,8 -6,6 -1,-2 -5,4 -7,6 -73,-93 -193,-369 -279,-229 -30,67 29,124 65,180 32,51 67,100 99,150 48,74 -43,153 -138,301 -130,205 -257,393 -390,602l-783 1202c-112,7 -197,-10 -164,125 45,24 66,23 127,23l3043 -9c77,-143 -39,-128 -154,-141l-834 -1286c-58,-88 -108,-168 -167,-254l-332 -518z"/>
    <path class="fil1 str0" d="M3052 4868c-43,69 -117,163 -148,238 834,-3 1649,0 2479,-1 -45,-87 -99,-159 -155,-246 -56,-87 -96,-152 -156,-241 -281,-418 -571,-907 -851,-1317 -27,-40 -45,-78 -79,-111 -47,49 -115,170 -160,240l-930 1438z"/>
   </g>
   <g>
    <path class="fil2" d="M4445 4743l68 -159c107,-2 48,158 -68,159zm-650 82c1,-54 38,-366 104,-392 46,34 50,101 89,150 38,2 62,-6 98,-7 39,0 71,8 109,10 14,-44 49,-134 87,-153 62,27 102,341 100,398 262,32 363,-287 159,-329 -1,-72 -16,-100 -83,-112 -57,-11 -526,-6 -603,-6 -160,1 -252,-6 -196,173 26,84 84,231 136,268z"/>
    <path class="fil2" d="M4039 4172c-2,-134 -6,-106 48,-200 43,-73 19,-143 -24,-186 10,124 6,107 -47,195 -46,75 -17,142 23,191z"/>
    <path class="fil2" d="M4111 4336c-9,-222 80,-165 68,-292l-20 -67c-12,-15 -4,-8 -23,-19 10,123 -5,114 -49,191 -38,67 -24,150 24,187z"/>
    <path class="fil2" d="M4095 4942c28,-17 44,-24 44,-64 -43,-12 -64,-14 -104,2 -1,43 19,55 60,62z"/>
   </g>
   <path class="fil1 str1" d="M4374 5561c36,0 65,-27 65,-69 0,-41 -29,-69 -65,-69 -37,0 -66,28 -66,69 0,42 29,69 66,69z"/>
   <g>
    <path class="fil2" d="M4345 5564c-2,-19 0,-33 7,-49 8,-17 14,-22 22,-35 7,-12 13,-26 15,-43 0,-5 0,-25 -3,-26 -5,-3 -20,0 -24,2 -10,4 -11,6 -18,12 -4,3 -9,10 -13,15 -8,11 -13,26 -16,42 -4,22 0,52 15,69 3,4 9,11 15,13z"/>
    <path class="fil2" d="M4396 5414c0,5 3,14 1,26 -5,30 -11,38 -27,61 -7,11 -15,25 -17,42 0,4 0,23 3,25 1,1 11,1 13,1 15,-3 20,-8 29,-15 5,-4 9,-10 14,-16 16,-23 22,-65 11,-93 -3,-7 -6,-13 -11,-18 -5,-8 -9,-9 -16,-13z"/>
   </g>
  </g>
 </g>
</svg>
